<svg width="45" height="46" viewBox="0 0 45 46" fill="none" xmlns="http://www.w3.org/2000/svg">
<path fill-rule="evenodd" clip-rule="evenodd" d="M37.5147 43.8284C39.0768 45.3905 41.6095 45.3905 43.1716 43.8284C44.7337 42.2663 44.7337 39.7337 43.1716 38.1716L28 23L43.1716 7.82843C44.7337 6.26633 44.7337 3.73367 43.1716 2.17157C41.6095 0.609475 39.0768 0.609474 37.5147 2.17157L22.3431 17.3431L6.82843 1.82843C5.26633 0.266332 2.73367 0.266333 1.17157 1.82843C-0.390523 3.39053 -0.390524 5.92319 1.17157 7.48528L16.6863 23L1.17157 38.5147C-0.390522 40.0768 -0.390522 42.6095 1.17157 44.1716C2.73367 45.7337 5.26633 45.7337 6.82843 44.1716L22.3431 28.6569L37.5147 43.8284Z" fill="black"/>
</svg>
