<svg width="44" height="53" viewBox="0 0 44 53" fill="none" xmlns="http://www.w3.org/2000/svg">
<path fill-rule="evenodd" clip-rule="evenodd" d="M11 15.7778C11 14.0731 11.3913 11.5809 12.8055 9.59676C14.0918 7.79201 16.5056 6 21.5 6C26.4944 6 28.9082 7.79201 30.1945 9.59676C31.6087 11.5809 32 14.0731 32 15.7778V24H11V15.7778ZM5 24V15.7778C5 13.3936 5.50869 9.49685 7.91951 6.11435C10.4582 2.55244 14.7944 0 21.5 0C28.2056 0 32.5418 2.55244 35.0805 6.11435C37.4913 9.49685 38 13.3936 38 15.7778V24H40C42.2091 24 44 25.7909 44 28V49C44 51.2091 42.2091 53 40 53H4C1.79086 53 0 51.2091 0 49V28C0 25.7909 1.79086 24 4 24H5Z" fill="black"/>
</svg>
