<svg width="107" height="21" viewBox="0 0 107 21" fill="none" xmlns="http://www.w3.org/2000/svg">
<path d="M30.128 0C24.356 0 19.676 4.702 19.676 10.5C19.676 16.298 24.356 21 30.128 21C35.9 21 40.579 16.299 40.579 10.5C40.58 4.702 35.901 0 30.128 0ZM30.128 15.154C27.569 15.154 25.495 13.07 25.495 10.5C25.495 7.93 27.57 5.846 30.128 5.846C32.686 5.846 34.76 7.93 34.76 10.5C34.761 13.07 32.687 15.154 30.128 15.154Z" fill="#0066FF"/>
<path d="M63.341 0C57.569 0 52.89 4.702 52.89 10.5C52.89 16.298 57.569 21 63.341 21C69.112 21 73.792 16.299 73.792 10.5C73.793 4.702 69.113 0 63.341 0ZM63.341 15.154C60.782 15.154 58.708 13.07 58.708 10.5C58.708 7.93 60.782 5.846 63.341 5.846C65.901 5.846 67.974 7.93 67.974 10.5C67.974 13.07 65.901 15.154 63.341 15.154Z" fill="#0066FF"/>
<path d="M18.332 12.314C17.002 11.414 15.198 11.763 14.297 13.095C14.294 13.099 14.291 13.105 14.287 13.109C14.276 13.125 14.266 13.14 14.257 13.156H14.255C13.419 14.363 12.028 15.154 10.451 15.154C7.893 15.154 5.819 13.07 5.819 10.5C5.819 7.93 7.893 5.846 10.451 5.846C12.047 5.846 13.454 6.656 14.286 7.89C14.29 7.895 14.294 7.901 14.298 7.907C15.198 9.238 17.002 9.587 18.332 8.686C19.664 7.783 20.015 5.967 19.115 4.628C19.109 4.618 19.102 4.61 19.096 4.6H19.097C17.216 1.823 14.045 0 10.451 0C4.679 0 0 4.701 0 10.5C0 16.299 4.679 21 10.451 21C14.035 21 17.198 19.188 19.081 16.426L19.079 16.424C19.09 16.408 19.103 16.391 19.115 16.371C20.014 15.033 19.663 13.217 18.332 12.314Z" fill="#0066FF"/>
<path d="M14.298 7.906C14.294 7.901 14.291 7.895 14.287 7.889C14.289 7.892 14.29 7.895 14.292 7.898C14.294 7.9 14.296 7.903 14.298 7.906Z" fill="#0066FF"/>
<path d="M51.453 15.154C51.447 15.154 51.441 15.154 51.437 15.154H51.441C48.888 15.148 46.819 13.066 46.819 10.5V2.923C46.819 2.336 46.648 1.792 46.352 1.334C45.834 0.531 44.935 0 43.911 0C42.304 0 41 1.308 41 2.923V10.5C41 16.294 45.674 20.994 51.441 21C51.445 21 51.449 21 51.453 21C51.449 21 51.445 21 51.441 21H51.437C51.443 21 51.447 21 51.453 21C53.059 21 54.363 19.691 54.363 18.078C54.363 16.463 53.059 15.154 51.453 15.154Z" fill="#0066FF"/>
<path d="M84.967 5.846C84.962 5.846 84.956 5.846 84.951 5.846H84.956C82.403 5.852 80.333 7.933 80.333 10.5V18.078C80.333 18.664 80.163 19.209 79.866 19.666C79.348 20.469 78.449 21 77.425 21C75.819 21 74.515 19.691 74.515 18.078V10.5C74.515 4.705 79.189 0.007 84.956 0H84.967C84.963 0 84.96 0 84.956 0H84.951C84.956 0 84.962 0 84.967 0C86.573 0 87.876 1.308 87.876 2.923C87.877 4.538 86.574 5.846 84.967 5.846Z" fill="#0066FF"/>
<path d="M104.822 12.314C104.735 12.253 104.642 12.201 104.551 12.152L94.852 6.349C95.481 6.028 96.192 5.846 96.944 5.846C98.53 5.846 99.929 6.647 100.765 7.87L100.767 7.869C101.274 8.643 102.139 9.162 103.131 9.184C104.737 9.22 106.069 7.942 106.106 6.328C106.12 5.675 105.918 5.069 105.567 4.575C105.573 4.583 105.579 4.59 105.586 4.598L105.588 4.596C103.705 1.822 100.536 0 96.943 0C93.356 0 90.193 1.816 88.31 4.582L88.312 4.583C88.3 4.599 88.289 4.613 88.278 4.629C87.38 5.967 87.731 7.784 89.064 8.687C89.153 8.747 89.245 8.802 89.337 8.851L99.034 14.653C98.405 14.973 97.696 15.155 96.942 15.155C95.348 15.155 93.943 14.346 93.11 13.116H93.108C93.11 13.118 93.11 13.12 93.112 13.12C93.108 13.116 93.106 13.112 93.104 13.106C93.102 13.104 93.1 13.102 93.099 13.1C92.201 11.766 90.393 11.412 89.063 12.315C87.73 13.217 87.378 15.036 88.277 16.372C88.279 16.376 88.282 16.38 88.284 16.382V16.384C90.163 19.169 93.339 21.001 96.942 21.001C100.539 21.001 103.708 19.175 105.588 16.397C105.594 16.389 105.602 16.381 105.608 16.372C105.608 16.37 105.61 16.368 105.612 16.366C105.616 16.36 105.62 16.356 105.624 16.35L105.622 16.348C106.502 15.012 106.148 13.213 104.822 12.314Z" fill="#0066FF"/>
</svg>