<svg width="44" height="53" viewBox="0 0 44 53" fill="none" xmlns="http://www.w3.org/2000/svg">
<path fill-rule="evenodd" clip-rule="evenodd" d="M11 15.7778C11 14.0731 11.3913 11.5809 12.8055 9.59676C14.0918 7.79201 16.5056 6 21.5 6C26.9531 6 29.4172 7.26732 30.5437 8.36512C31.6393 9.43291 32 10.8586 32 12.5H38C38 10.0525 37.4607 6.72821 34.7313 4.06822C32.0328 1.43824 27.7469 0 21.5 0C14.7944 0 10.4582 2.55244 7.91951 6.11435C5.50869 9.49685 5 13.3936 5 15.7778V24H4C1.79086 24 0 25.7909 0 28V49C0 51.2091 1.79086 53 4 53H40C42.2091 53 44 51.2091 44 49V28C44 25.7909 42.2091 24 40 24H11V15.7778Z" fill="black"/>
</svg>
